<?xml version="1.0" encoding="UTF-8" standalone="no"?>
<!-- Generator: Adobe Illustrator 19.0.0, SVG Export Plug-In . SVG Version: 6.00 Build 0)  -->

<svg
   version="1.1"
   id="Layer_1"
   x="0px"
   y="0px"
   viewBox="0 0 96 96"
   style="enable-background:new 0 0 96 96;"
   xml:space="preserve"
   sodipodi:docname="com.qt.gpclient.svg"
   inkscape:version="1.4.2 (ebf0e940d0, 2025-05-08)"
   xmlns:inkscape="http://www.inkscape.org/namespaces/inkscape"
   xmlns:sodipodi="http://sodipodi.sourceforge.net/DTD/sodipodi-0.dtd"
   xmlns="http://www.w3.org/2000/svg"
   xmlns:svg="http://www.w3.org/2000/svg"
   xmlns:rdf="http://www.w3.org/1999/02/22-rdf-syntax-ns#"
   xmlns:cc="http://creativecommons.org/ns#"
   xmlns:dc="http://purl.org/dc/elements/1.1/"><metadata
   id="metadata14"><rdf:RDF><cc:Work
       rdf:about=""><dc:format>image/svg+xml</dc:format><dc:type
         rdf:resource="http://purl.org/dc/dcmitype/StillImage" /><dc:title /></cc:Work></rdf:RDF></metadata><defs
   id="defs12" /><sodipodi:namedview
   pagecolor="#ffffff"
   bordercolor="#666666"
   borderopacity="1"
   objecttolerance="10"
   gridtolerance="10"
   guidetolerance="10"
   inkscape:pageopacity="0"
   inkscape:pageshadow="2"
   inkscape:window-width="1920"
   inkscape:window-height="1008"
   id="namedview10"
   showgrid="false"
   inkscape:zoom="2.4507601"
   inkscape:cx="19.381742"
   inkscape:cy="-7.1406418"
   inkscape:window-x="0"
   inkscape:window-y="0"
   inkscape:window-maximized="1"
   inkscape:current-layer="g1"
   inkscape:showpageshadow="2"
   inkscape:pagecheckerboard="0"
   inkscape:deskcolor="#d1d1d1" />
<style
   type="text/css"
   id="style2">
	.st0{fill:#2980B9;}
	.st1{fill:#3498DB;}
	.st2{fill:#2ECC71;}
	.st3{fill:#27AE60;}
</style>

<g
   id="g8499"
   transform="matrix(1.3407388,0,0,1.3407388,-16.409202,-16.355463)"><g
     id="g1"
     transform="matrix(0.16550434,0,0,0.16550434,53.599049,34.308549)"><path
       d="M 92.75498,-43.617396 C 59.007169,-77.364461 14.137877,-95.950482 -33.588048,-95.950482 c -47.725925,0 -92.595212,18.586021 -126.343032,52.333086 -33.74706,33.7478116 -52.33308,78.617103 -52.33308,126.343028 0,47.725928 18.58527,92.595218 52.33308,126.343028 33.74782,33.74781 78.617107,52.33309 126.343032,52.33309 47.725925,0 92.595217,-18.58528 126.343028,-52.33309 33.74781,-33.74781 52.33309,-78.6171 52.33309,-126.343028 0,-47.725925 -18.58528,-92.5952164 -52.33309,-126.343028 z"
       style="fill:#666ac2;fill-opacity:1;stroke:#666ac2;stroke-width:37.2929;stroke-miterlimit:4;stroke-dasharray:none;stroke-opacity:1"
       id="path1" /><path
       fill="#0096D1"
       d="M 92.75498,-43.617396 C 59.007169,-77.364461 14.137877,-95.950482 -33.588048,-95.950482 c -47.725925,0 -92.595212,18.586021 -126.343032,52.333086 -33.74706,33.7478116 -52.33308,78.617103 -52.33308,126.343028 0,47.725928 18.58527,92.595218 52.33308,126.343028 33.74782,33.74781 78.617107,52.33309 126.343032,52.33309 47.725925,0 92.595217,-18.58528 126.343028,-52.33309 33.74781,-33.74781 52.33309,-78.6171 52.33309,-126.343028 0,-47.725925 -18.58528,-92.5952164 -52.33309,-126.343028 z M 63.393556,72.656557 C 62.542533,43.728476 58.033079,16.066116 50.291825,-8.3472894 62.913224,-11.920692 74.646307,-16.356306 85.607428,-21.684712 108.01373,3.8631426 122.35209,36.64656 124.62099,72.656557 Z M -43.657123,239.83155 c -15.654802,-4.43711 -30.482448,-19.13497 -42.549675,-42.50194 -1.520057,-2.9439 -2.972242,-5.98551 -4.358791,-9.11363 8.646725,-1.64238 17.661904,-2.93495 27.05747,-3.84713 6.644844,-0.64517 13.262837,-1.07031 19.850996,-1.29705 z m 20.13815,-56.79704 c 15.9061559,0.48928 31.5766205,2.22041 46.904737,5.18818 -1.385804,3.12589 -2.836496,6.16526 -4.355062,9.10617 -12.0672273,23.36697 -26.894873,38.06558 -42.549675,42.50194 z m -20.13815,-20.11056 c -7.234817,0.2342 -14.502452,0.69141 -21.797684,1.39998 -11.270651,1.09417 -22.068429,2.70149 -32.386621,4.79511 -7.400402,-22.7755 -11.730102,-48.86932 -12.582612,-76.324333 h 66.766917 z M -110.4233,72.656557 c 0.85252,-27.459487 5.18371,-53.556293 12.585601,-76.3347789 17.685772,3.63232569 35.792953,5.7155055 54.180576,6.246556 V 72.656557 Z m 66.766177,-90.231595 c -15.906902,-0.490028 -31.578112,-2.225638 -46.90772,-5.190421 1.386549,-3.128126 2.838734,-6.169733 4.358045,-9.112886 12.067227,-23.367714 26.894127,-38.066326 42.549675,-42.502686 z m 20.13815,-56.805247 c 15.654802,4.43636 30.4824477,19.134972 42.549675,42.502685 1.527516,2.958071 2.986413,6.016086 4.378929,9.160621 -7.769597,1.460389 -15.888255,2.633623 -24.38133351,3.527906 -7.54956889,0.794338 -15.06781149,1.306742 -22.54652449,1.563317 v -56.754529 z m 60.442795,33.263004 c -4.936085,-9.558909 -10.371894,-17.946076 -16.208974,-25.112274 18.391353,6.725396 35.197012,16.766875 49.695735,29.394987 -8.472195,3.710641 -17.481407,6.869347 -27.064929,9.513411 -2.003373,-4.773487 -4.142492,-9.38214 -6.421832,-13.796124 z m -141.023742,0 c -2.26815,4.391608 -4.39757,8.976394 -6.392,13.724522 -9.70882,-2.665694 -18.70088,-5.799041 -27.09401,-9.441809 14.49797,-12.627366 31.30363,-22.668845 49.694986,-29.394241 -5.83708,7.165452 -11.272889,15.552619 -16.208976,25.111528 z m -13.34488,32.6983893 c -7.75542,24.4305597 -12.27308,52.1190257 -13.12485,81.0754487 h -61.22744 c 2.26815,-35.999555 16.59831,-68.7740221 38.99417,-94.318893 10.85447,5.25009 22.55697,9.638715 35.35812,13.2434443 z M -130.56965,92.794707 c 0.85177,28.949713 5.36719,56.631463 13.11888,81.058293 -12.66316,3.58907 -24.44771,8.03289 -35.32306,13.29342 -22.41227,-25.54935 -36.75436,-58.33724 -39.02326,-94.351713 z m 20.07028,100.031413 c 1.99666,4.75484 4.12906,9.34485 6.39945,13.74243 4.936087,9.5589 10.371896,17.94607 16.20823,25.11227 -18.38315,-6.72316 -35.18284,-16.75867 -49.67709,-29.37858 8.43565,-3.66962 17.47395,-6.82534 27.06941,-9.47612 z m 153.806986,0.038 c 9.541008,2.64556 18.583783,5.81545 27.04479,9.47388 -14.485297,12.6035 -31.270819,22.62633 -49.636812,29.34278 5.836334,-7.1662 11.272143,-15.55337 16.208974,-25.11227 2.264423,-4.38565 4.390862,-8.96372 6.383048,-13.70439 z M 30.662349,169.12725 c -17.683534,-3.63531 -35.7936984,-5.70954 -54.181322,-6.24059 V 92.794707 H 43.247201 C 42.39394,120.25345 38.063492,146.34951 30.662349,169.12725 Z M -23.518973,72.656557 V 2.5288036 C -15.3399,2.2647701 -7.1168219,1.7061229 1.1360906,0.83794484 11.469199,-0.24951529 21.292142,-1.7457053 30.67652,-3.6319787 38.069459,19.135319 42.395432,45.215716 43.247947,72.656557 Z m 109.039136,114.577123 0.05072,-0.10516 c -10.888027,-5.22697 -22.721055,-9.66035 -35.308145,-13.23897 7.759155,-24.43578 12.279051,-52.13096 13.13082,-81.095588 h 61.226692 c -2.27114,36.056988 -16.64381,68.877698 -39.100085,94.439718 z"
       style="fill:#ffffff;stroke-width:0.745857"
       id="path2" /></g></g></svg>
